# xmcd
#
# Track frame offsets:
#	150
#	14464
#	28936
#	42803
#	60761
#	76424
#	90191
#	107681
#	123456
#	139824
#	154384
#	167896
#	191864
#
# Disc length: 4440 seconds
#
# Revision: 0
# Processed by: cddbd v1.5.2PL0 Copyright (c) Steve Scherf et al.
# Submitted via: EasyCDDAExtractor 2010.6.0.0
#
DISCID=a511560d
DTITLE=ALAN and ALADIM - APRENDIZ DO AMOR
DYEAR=1989
DGENRE=SERTANEJO
TTITLE0=APRENDIZ DO AMOR (CANÇÃO-RANCHEIRA) (BY DJ GILMAR SINISTRO)
TTITLE1=PRA PODER VOLTAR AQUI (BALANÇO) (BY DJ GILMAR SINISTRO)
TTITLE2=VOCÊ AINDA VIVE EM MIM (CANÇÃO-RANCHEIRA) (BY DJ GILMAR SINISTRO)
TTITLE3=NOSSA ESTRELA (GUARANIA) (BY DJ GILMAR SINISTRO)
TTITLE4=ME DEIXE ENTRAR EM SUA VIDA (BOLERO) (BY DJ GILMAR SINISTRO)
TTITLE5=EU NÃO SEI NEM VIVER (BALADA) (BY DJ GILMAR SINISTRO)
TTITLE6=NÃO VÁ (BALANÇO) (BY DJ GILMAR SINISTRO)
TTITLE7=INIMIGO DO PEITO (RASQUEADO) (BY DJ GILMAR SINISTRO)
TTITLE8=DONA (BALANÇO) (BY DJ GILMAR SINISTRO)
TTITLE9=TE AMO DE CORAÇÃO(CANÇÃO-RANCHEIRA) (BY DJ GILMAR SINISTRO)
TTITLE10=QUEM AMA PERDOA (BALANÇO) (BY DJ GILMAR SINISTRO)
TTITLE11=CASTELO DE ALGODÃO (ROCK-INFANTIL) (BY DJ GILMAR SINISTRO)
TTITLE12=PROTEÇÃO CONTRA COPIA(BY DJ GILMAR SINISTRO)
EXTD=
EXTT0=
EXTT1=
EXTT2=
EXTT3=
EXTT4=
EXTT5=
EXTT6=
EXTT7=
EXTT8=
EXTT9=
EXTT10=
EXTT11=
EXTT12=
PLAYORDER=
